<svg data-name="Layer 1" xmlns="http://www.w3.org/2000/svg" viewBox="0 0 407.28 282.69"><path d="M58.4 282.69H0V5.09h58.4v31.2q21.2-33.6 61.2-33.6 39.19 0 63 27.8t23.8 75.4q0 45.21-23 74.8t-63.8 29.6q-41.2 0-61.2-32.4zm0-178.4q0 26 12.8 41.6t32.8 15.6q19.2 0 31.2-14.6t12-39.8q0-27.6-12.2-41.8a39.12 39.12 0 0 0-31-14.2q-18.4 0-32 14t-13.6 39.2zm189.88 48.82q20.42 14.68 48.95 14.68 26.45 0 43.17-16.62t16.72-45q0-29-16.72-46.21T299.05 42.7a95 95 0 0 0-50.77 14V11.59Q266.84.01 301.48 0q47.13 0 76.46 29.59t29.34 76.55q0 46.36-30.25 75.49t-75.24 29.16q-35 0-53.51-11.59z" fill="#231f20"/></svg>